<svg width="13" height="12" viewBox="0 0 13 12" fill="none" xmlns="http://www.w3.org/2000/svg">
<path fill-rule="evenodd" clip-rule="evenodd" d="M6.5 0.75C6.61603 0.75 6.72731 0.796094 6.80936 0.878141C6.89141 0.960188 6.9375 1.07147 6.9375 1.1875V5.5625H11.3125C11.4285 5.5625 11.5398 5.60859 11.6219 5.69064C11.7039 5.77269 11.75 5.88397 11.75 6C11.75 6.11603 11.7039 6.22731 11.6219 6.30936C11.5398 6.39141 11.4285 6.4375 11.3125 6.4375H6.9375V10.8125C6.9375 10.9285 6.89141 11.0398 6.80936 11.1219C6.72731 11.2039 6.61603 11.25 6.5 11.25C6.38397 11.25 6.27269 11.2039 6.19064 11.1219C6.10859 11.0398 6.0625 10.9285 6.0625 10.8125V6.4375H1.6875C1.57147 6.4375 1.46019 6.39141 1.37814 6.30936C1.29609 6.22731 1.25 6.11603 1.25 6C1.25 5.88397 1.29609 5.77269 1.37814 5.69064C1.46019 5.60859 1.57147 5.5625 1.6875 5.5625H6.0625V1.1875C6.0625 1.07147 6.10859 0.960188 6.19064 0.878141C6.27269 0.796094 6.38397 0.75 6.5 0.75V0.75Z" fill="#262626" stroke="#262626"/>
</svg>
