<svg width="17" height="15" viewBox="0 0 17 15" fill="none" xmlns="http://www.w3.org/2000/svg">
<path d="M3.53369 11.1674H0.5V14H3.53369V11.1674Z" stroke="#14375E" stroke-width="0.75" stroke-miterlimit="10" stroke-linecap="round" stroke-linejoin="round"/>
<path d="M7.84473 8.4436H4.81104V14H7.84473V8.4436Z" stroke="#14375E" stroke-width="0.75" stroke-miterlimit="10" stroke-linecap="round" stroke-linejoin="round"/>
<path d="M12.1558 9.80548H9.12207V14H12.1558V9.80548Z" stroke="#14375E" stroke-width="0.75" stroke-miterlimit="10" stroke-linecap="round" stroke-linejoin="round"/>
<path d="M16.52 5.77429H13.4863V14H16.52V5.77429Z" stroke="#14375E" stroke-width="0.75" stroke-miterlimit="10" stroke-linecap="round" stroke-linejoin="round"/>
<path d="M3.32081 6.70041C3.32081 7.40859 2.73536 8.00779 2.04347 8.00779C1.35157 8.00779 0.766113 7.40859 0.766113 6.70041C0.766113 5.99224 1.35157 5.39301 2.04347 5.39301C2.73536 5.39301 3.32081 5.99224 3.32081 6.70041Z" fill="#14375E"/>
<path d="M7.57862 4.14005C7.57862 4.84822 6.99317 5.44746 6.30128 5.44746C5.60939 5.44746 5.02393 4.84822 5.02393 4.14005C5.02393 3.43188 5.60939 2.83264 6.30128 2.83264C6.99317 2.83264 7.57862 3.3774 7.57862 4.14005Z" fill="#14375E"/>
<path d="M11.9429 5.39301C11.9429 6.10118 11.3574 6.70042 10.6655 6.70042C9.97363 6.70042 9.38818 6.10118 9.38818 5.39301C9.38818 4.68484 9.97363 4.08563 10.6655 4.08563C11.3574 4.08563 11.9429 4.68484 11.9429 5.39301Z" fill="#14375E"/>
<path d="M16.2539 1.30738C16.2539 2.01555 15.6684 2.61478 14.9766 2.61478C14.2847 2.61478 13.6992 2.01555 13.6992 1.30738C13.6992 0.599203 14.2847 0 14.9766 0C15.6684 0 16.2539 0.599203 16.2539 1.30738Z" fill="#14375E"/>
<path d="M3.10791 5.99222L5.18359 4.68481" stroke="#14375E" stroke-width="0.75" stroke-miterlimit="10" stroke-linecap="round" stroke-linejoin="round"/>
<path d="M7.57861 4.14008L9.49463 4.84824" stroke="#14375E" stroke-width="0.75" stroke-miterlimit="10" stroke-linecap="round" stroke-linejoin="round"/>
<path d="M11.5703 4.46693L14.0718 2.17902" stroke="#14375E" stroke-width="0.75" stroke-miterlimit="10" stroke-linecap="round" stroke-linejoin="round"/>
</svg>
