<svg width="12" height="12" viewBox="0 0 12 12" fill="none" xmlns="http://www.w3.org/2000/svg">
<path fill-rule="evenodd" clip-rule="evenodd" d="M10.7655 8.5155C10.7307 8.55042 10.6893 8.57813 10.6437 8.59704C10.5982 8.61594 10.5493 8.62567 10.5 8.62567C10.4507 8.62567 10.4018 8.61594 10.3563 8.59704C10.3107 8.57813 10.2693 8.55042 10.2345 8.5155L6 4.28025L1.7655 8.5155C1.73064 8.55037 1.68924 8.57802 1.64369 8.59689C1.59813 8.61576 1.54931 8.62548 1.5 8.62548C1.45069 8.62548 1.40187 8.61576 1.35631 8.59689C1.31076 8.57802 1.26937 8.55037 1.2345 8.5155C1.19964 8.48064 1.17198 8.43924 1.15311 8.39369C1.13424 8.34813 1.12453 8.29931 1.12453 8.25C1.12453 8.20069 1.13424 8.15187 1.15311 8.10631C1.17198 8.06076 1.19964 8.01937 1.2345 7.9845L5.7345 3.4845C5.76934 3.44958 5.81072 3.42187 5.85628 3.40297C5.90184 3.38406 5.95068 3.37433 6 3.37433C6.04933 3.37433 6.09817 3.38406 6.14373 3.40297C6.18928 3.42187 6.23067 3.44958 6.2655 3.4845L10.7655 7.9845C10.8004 8.01934 10.8281 8.06072 10.847 8.10628C10.8659 8.15183 10.8757 8.20068 10.8757 8.25C10.8757 8.29933 10.8659 8.34817 10.847 8.39373C10.8281 8.43929 10.8004 8.48067 10.7655 8.5155V8.5155Z" fill="#262626"/>
</svg>
