<svg width="16" height="14" viewBox="0 0 16 14" fill="none" xmlns="http://www.w3.org/2000/svg">
<path d="M13.8795 10.3686V11.6022C13.8795 13.1679 12.7883 13.5 12.1241 13.5H2.16058C1.21168 13.5 0.5 12.646 0.5 11.365V2.11316" stroke="#14375E" stroke-miterlimit="10" stroke-linecap="round" stroke-linejoin="round"/>
<path d="M13.3102 4.24818V2.01825C13.3102 0.879567 12.219 0.5 11.365 0.5H2.35037C1.25913 0.5 0.5 1.25912 0.5 2.16058C0.5 3.06204 1.02189 3.91606 2.30291 3.91606H12.1241C13.7847 3.91606 13.927 5.29198 13.927 5.52921V7" stroke="#14375E" stroke-miterlimit="10" stroke-linecap="round" stroke-linejoin="round"/>
<path d="M2.16058 2.1606H12.0292C12.3613 2.1606 13.2628 2.1606 13.2628 2.96717" stroke="#14375E" stroke-miterlimit="10" stroke-linecap="round" stroke-linejoin="round"/>
<path d="M13.8322 5.29196C14.2592 5.29196 14.7336 5.52919 14.7336 6.24087V9.18247C14.7336 9.89415 14.354 10.3211 13.8322 10.3211H11.5548C10.7482 10.3211 9.98907 9.51458 9.98907 8.61313C9.98907 7.66422 10.8431 6.95254 11.6022 6.95254H13.8796C14.4489 6.95254 14.7811 6.57298 14.7811 6.24087" stroke="#14375E" stroke-miterlimit="10" stroke-linecap="round" stroke-linejoin="round"/>
<path d="M12.2664 8.66062C12.2664 8.99273 12.0292 9.22996 11.6971 9.22996C11.365 9.22996 11.1277 8.99273 11.1277 8.66062C11.1277 8.3285 11.365 8.09127 11.6971 8.09127C12.0292 8.04382 12.2664 8.3285 12.2664 8.66062Z" fill="#14375E"/>
</svg>
