<svg width="19" height="20" viewBox="0 0 19 20" fill="none" xmlns="http://www.w3.org/2000/svg">
<path d="M15.2287 17.638H4.24078C3.31909 17.638 2.56006 16.9169 2.56006 16.0413V2.13467C2.56006 1.25906 3.31909 0.537979 4.24078 0.537979H13.0239C13.1323 0.537979 13.2408 0.623822 13.2408 0.744003V4.02322H16.6926C16.801 4.02322 16.9095 4.10906 16.9095 4.22924V16.0585C16.9095 16.9169 16.1504 17.638 15.2287 17.638ZM4.24078 0.932859C3.55403 0.932859 2.99379 1.46509 2.99379 2.1175V16.0241C2.99379 16.6765 3.55403 17.2088 4.24078 17.2088H15.2287C15.9155 17.2088 16.4757 16.6765 16.4757 16.0241V4.4181H13.0239C12.9155 4.4181 12.807 4.33226 12.807 4.21208V0.932859H4.24078Z" fill="#14375E" stroke="#14375E" stroke-width="0.5"/>
<path d="M16.6926 4.4181H13.0239C12.9155 4.4181 12.8071 4.33226 12.8071 4.21207V0.744003C12.8071 0.65816 12.8613 0.589485 12.9336 0.555148C13.0059 0.52081 13.0962 0.537979 13.1685 0.606654L16.8372 4.09189C16.8914 4.1434 16.9095 4.22924 16.8914 4.31509C16.8553 4.36659 16.783 4.4181 16.6926 4.4181ZM13.2408 4.02322H16.1866L13.2408 1.22473V4.02322Z" fill="#14375E" stroke="#14375E" stroke-width="0.5"/>
<path d="M13.7649 12.762H5.70466C5.59623 12.762 5.48779 12.6762 5.48779 12.556C5.48779 12.4358 5.57815 12.35 5.70466 12.35H13.7649C13.8733 12.35 13.9818 12.4358 13.9818 12.556C13.9818 12.6762 13.8733 12.762 13.7649 12.762Z" fill="#14375E" stroke="#14375E" stroke-width="0.5"/>
<path d="M13.7649 10.6846H5.70466C5.59623 10.6846 5.48779 10.5988 5.48779 10.4786C5.48779 10.3756 5.57815 10.2726 5.70466 10.2726H13.7649C13.8733 10.2726 13.9818 10.3584 13.9818 10.4786C13.9818 10.5816 13.8733 10.6846 13.7649 10.6846Z" fill="#14375E" stroke="#14375E" stroke-width="0.5"/>
<path d="M13.7649 8.5901H5.70466C5.59623 8.5901 5.48779 8.50426 5.48779 8.38408C5.48779 8.28107 5.57815 8.17805 5.70466 8.17805H13.7649C13.8733 8.17805 13.9818 8.2639 13.9818 8.38408C13.9818 8.50426 13.8733 8.5901 13.7649 8.5901Z" fill="#14375E" stroke="#14375E" stroke-width="0.5"/>
<path d="M13.7649 6.51267H5.70466C5.59623 6.51267 5.48779 6.42682 5.48779 6.30664C5.48779 6.20363 5.57815 6.10062 5.70466 6.10062H13.7649C13.8733 6.10062 13.9818 6.18646 13.9818 6.30664C13.9818 6.40965 13.8733 6.51267 13.7649 6.51267Z" fill="#14375E" stroke="#14375E" stroke-width="0.5"/>
</svg>
