<svg width="16" height="15" viewBox="0 0 16 15" fill="none" xmlns="http://www.w3.org/2000/svg">
<path d="M1 7.50003C1 3.61116 4.11109 0.5 7.99997 0.5C11.8888 0.5 14.9999 3.61116 14.9999 7.50003C14.9999 11.3889 11.8888 14.5 7.99997 14.5C4.11109 14.5 1 11.2778 1 7.50003Z" stroke="#1F95D7" stroke-miterlimit="10" stroke-linecap="round" stroke-linejoin="round"/>
<path d="M7.44451 9.50001C7.44451 9.3889 7.44451 9.2778 7.44451 9.16669C7.44451 8.83336 7.44451 8.5 7.55562 8.16667C7.66673 7.94444 7.77783 7.72225 7.88894 7.50003C8.00005 7.38892 8.22228 7.16666 8.55561 6.83332C8.88895 6.49999 9.11117 6.2778 9.22229 6.16669C9.3334 5.94446 9.3334 5.83335 9.3334 5.61113C9.3334 5.2778 9.22227 4.94444 8.88893 4.61111C8.5556 4.27778 8.22227 4.1667 7.77782 4.1667C7.33338 4.1667 7.00006 4.2778 6.77783 4.50002C6.55561 4.72225 6.33339 5.16666 6.22228 5.72222L5.22229 5.61113C5.3334 4.83336 5.55564 4.2778 6.00008 3.94447C6.44452 3.50003 7.00005 3.38892 7.77782 3.38892C8.5556 3.38892 9.11117 3.61111 9.66672 4.05555C10.1112 4.5 10.3334 4.94447 10.3334 5.61113C10.3334 5.94446 10.2223 6.27776 10.1112 6.61109C10 6.94442 9.66673 7.27775 9.22229 7.7222C8.88895 8.05553 8.66672 8.16668 8.55561 8.3889C8.4445 8.50001 8.33338 8.72219 8.33338 8.8333C8.33338 9.05552 8.2223 9.2778 8.2223 9.72224H7.44451V9.50001ZM7.44451 10.3889H8.55561V11.5H7.44451V10.3889Z" fill="#1F95D7"/>
</svg>
