<svg width="13" height="18" viewBox="0 0 13 18" fill="none" xmlns="http://www.w3.org/2000/svg">
<path d="M6.66191 1C3.177 1.16053 0.836387 3.94316 1.66861 6.67225L1.98069 7.74249L4.16525 12.4515H9.83473L12.0193 7.74249L12.3314 6.67225C13.1636 3.94316 10.823 1.21405 7.33808 1C7.23406 1 7.13003 1 7.026 1C6.86996 1 6.76594 1 6.66191 1Z" stroke="#14375E" stroke-miterlimit="10" stroke-linecap="round" stroke-linejoin="round"/>
<path d="M9.21054 12.398V13.6823C9.21054 14.2174 8.74242 14.699 8.17027 14.699H5.77764C5.20549 14.699 4.73737 14.2709 4.73737 13.6823V12.398" stroke="#14375E" stroke-miterlimit="10" stroke-linecap="round" stroke-linejoin="round"/>
<path d="M6.97394 5.5484H4.73737L6.97394 12.3979L9.21054 5.5484" stroke="#14375E" stroke-miterlimit="10" stroke-linecap="round" stroke-linejoin="round"/>
<path d="M8.11829 14.6991H5.88171V17.0001H8.11829V14.6991Z" stroke="#14375E" stroke-miterlimit="10" stroke-linecap="round" stroke-linejoin="round"/>
</svg>
