<svg width="16" height="15" viewBox="0 0 16 15" fill="none" xmlns="http://www.w3.org/2000/svg">
<g clip-path="url(#clip0_41_1447)">
<path d="M11.8869 0.13682C11.9304 0.0931672 11.9821 0.0585333 12.0391 0.0349023C12.096 0.0112712 12.1571 -0.000892639 12.2188 -0.000892639C12.2804 -0.000892639 12.3415 0.0112712 12.3984 0.0349023C12.4554 0.0585333 12.5071 0.0931672 12.5506 0.13682L15.3631 2.94932C15.4068 2.99286 15.4414 3.04459 15.465 3.10154C15.4887 3.15849 15.5008 3.21954 15.5008 3.2812C15.5008 3.34285 15.4887 3.4039 15.465 3.46085C15.4414 3.5178 15.4068 3.56953 15.3631 3.61307L5.98813 12.9881C5.94314 13.0327 5.88956 13.0678 5.83063 13.0912L1.14313 14.9662C1.05794 15.0003 0.964622 15.0086 0.874738 14.9902C0.784854 14.9718 0.702358 14.9274 0.637477 14.8625C0.572596 14.7976 0.528183 14.7151 0.509745 14.6252C0.491307 14.5353 0.499654 14.442 0.533751 14.3568L2.40875 9.66932C2.43212 9.61039 2.4672 9.55681 2.51188 9.51182L11.8869 0.13682V0.13682ZM11.0066 2.3437L13.1563 4.49338L14.3684 3.2812L12.2188 1.13151L11.0066 2.3437ZM12.4934 5.1562L10.3438 3.00651L4.25 9.10026V9.37495H4.71875C4.84307 9.37495 4.9623 9.42433 5.05021 9.51224C5.13812 9.60015 5.1875 9.71937 5.1875 9.8437V10.3124H5.65625C5.78057 10.3124 5.8998 10.3618 5.98771 10.4497C6.07562 10.5376 6.125 10.6569 6.125 10.7812V11.2499H6.39969L12.4934 5.1562V5.1562ZM3.3425 10.0078L3.24313 10.1071L1.81063 13.6893L5.39281 12.2568L5.49219 12.1574C5.40277 12.124 5.32568 12.0641 5.27123 11.9857C5.21679 11.9073 5.18757 11.8142 5.1875 11.7187V11.2499H4.71875C4.59443 11.2499 4.4752 11.2006 4.38729 11.1127C4.29939 11.0247 4.25 10.9055 4.25 10.7812V10.3124H3.78125C3.68579 10.3124 3.59264 10.2832 3.51423 10.2287C3.43582 10.1743 3.37591 10.0972 3.3425 10.0078V10.0078Z" fill="#212529"/>
</g>
<defs>
<clipPath id="clip0_41_1447">
<rect width="15" height="15" fill="white" transform="translate(0.5)"/>
</clipPath>
</defs>
</svg>
