<svg width="19" height="18" viewBox="0 0 19 18" fill="none" xmlns="http://www.w3.org/2000/svg">
<g clip-path="url(#clip0_1_1191)">
<path d="M17.375 15.75C17.375 15.75 18.5 15.75 18.5 14.625C18.5 13.5 17.375 10.125 12.875 10.125C8.375 10.125 7.25 13.5 7.25 14.625C7.25 15.75 8.375 15.75 8.375 15.75H17.375ZM8.39975 14.625C8.39144 14.6239 8.38318 14.6224 8.375 14.6205C8.37612 14.3235 8.56287 13.4618 9.23 12.6855C9.851 11.9576 10.9423 11.25 12.875 11.25C14.8066 11.25 15.8979 11.9587 16.52 12.6855C17.1871 13.4618 17.3727 14.3246 17.375 14.6205L17.366 14.6228C17.3608 14.6236 17.3555 14.6244 17.3503 14.625H8.39975ZM12.875 7.875C13.4717 7.875 14.044 7.63795 14.466 7.21599C14.8879 6.79403 15.125 6.22174 15.125 5.625C15.125 5.02826 14.8879 4.45597 14.466 4.03401C14.044 3.61205 13.4717 3.375 12.875 3.375C12.2783 3.375 11.706 3.61205 11.284 4.03401C10.8621 4.45597 10.625 5.02826 10.625 5.625C10.625 6.22174 10.8621 6.79403 11.284 7.21599C11.706 7.63795 12.2783 7.875 12.875 7.875ZM16.25 5.625C16.25 6.06821 16.1627 6.50708 15.9931 6.91656C15.8235 7.32603 15.5749 7.69809 15.2615 8.01149C14.9481 8.32488 14.576 8.57348 14.1666 8.74309C13.7571 8.9127 13.3182 9 12.875 9C12.4318 9 11.9929 8.9127 11.5834 8.74309C11.174 8.57348 10.8019 8.32488 10.4885 8.01149C10.1751 7.69809 9.92652 7.32603 9.75691 6.91656C9.5873 6.50708 9.5 6.06821 9.5 5.625C9.5 4.72989 9.85558 3.87145 10.4885 3.23851C11.1214 2.60558 11.9799 2.25 12.875 2.25C13.7701 2.25 14.6286 2.60558 15.2615 3.23851C15.8944 3.87145 16.25 4.72989 16.25 5.625ZM8.303 10.44C7.85298 10.2983 7.38909 10.2051 6.91925 10.1621C6.65525 10.137 6.39019 10.1246 6.125 10.125C1.625 10.125 0.5 13.5 0.5 14.625C0.5 15.3754 0.874625 15.75 1.625 15.75H6.368C6.20122 15.3988 6.11805 15.0137 6.125 14.625C6.125 13.4888 6.54913 12.3277 7.35125 11.358C7.62463 11.0272 7.943 10.7179 8.303 10.44ZM6.035 11.25C5.36917 12.2504 5.0095 13.4233 5 14.625H1.625C1.625 14.3325 1.8095 13.4663 2.48 12.6855C3.09313 11.97 4.1585 11.2725 6.035 11.2511V11.25ZM2.1875 6.1875C2.1875 5.29239 2.54308 4.43395 3.17601 3.80101C3.80895 3.16808 4.66739 2.8125 5.5625 2.8125C6.45761 2.8125 7.31605 3.16808 7.94899 3.80101C8.58192 4.43395 8.9375 5.29239 8.9375 6.1875C8.9375 7.08261 8.58192 7.94105 7.94899 8.57399C7.31605 9.20692 6.45761 9.5625 5.5625 9.5625C4.66739 9.5625 3.80895 9.20692 3.17601 8.57399C2.54308 7.94105 2.1875 7.08261 2.1875 6.1875ZM5.5625 3.9375C4.96576 3.9375 4.39347 4.17455 3.97151 4.59651C3.54955 5.01847 3.3125 5.59076 3.3125 6.1875C3.3125 6.78424 3.54955 7.35653 3.97151 7.77849C4.39347 8.20045 4.96576 8.4375 5.5625 8.4375C6.15924 8.4375 6.73153 8.20045 7.15349 7.77849C7.57545 7.35653 7.8125 6.78424 7.8125 6.1875C7.8125 5.59076 7.57545 5.01847 7.15349 4.59651C6.73153 4.17455 6.15924 3.9375 5.5625 3.9375Z" fill="#212529"/>
</g>
<defs>
<clipPath id="clip0_1_1191">
<rect width="18" height="18" fill="white" transform="translate(0.5)"/>
</clipPath>
</defs>
</svg>
