<svg width="17" height="15" viewBox="0 0 17 15" fill="none" xmlns="http://www.w3.org/2000/svg">
<g clip-path="url(#clip0_41_1442)">
<path d="M8.46876 7.20388e-07C5.20242 7.20388e-07 2.4711 1.975 1.3576 4.76563L2.5363 5.23438C3.46762 2.9 5.72657 1.25 8.46876 1.25C10.5398 1.25 12.3896 2.24375 13.5428 3.75H11.0256V5H15.5V0.625001H14.2216V2.55875C13.5055 1.75487 12.6215 1.1105 11.6291 0.669096C10.6367 0.227695 9.55901 -0.000467893 8.46876 7.20388e-07V7.20388e-07ZM14.4006 9.76563C13.4699 12.1 11.2109 13.75 8.46876 13.75C6.37472 13.75 4.53317 12.7425 3.3743 11.25H5.91194V10H1.43751V14.375H2.71591V12.4413C4.11577 13.9913 6.16442 15 8.46876 15C11.7351 15 14.4664 13.025 15.5799 10.2344L14.4012 9.76563H14.4006Z" fill="#222222"/>
</g>
<defs>
<clipPath id="clip0_41_1442">
<rect width="15.9375" height="15" fill="white" transform="translate(0.5)"/>
</clipPath>
</defs>
</svg>
