<svg width="17" height="18" viewBox="0 0 17 18" fill="none" xmlns="http://www.w3.org/2000/svg">
<path d="M14.9991 17.12H3.04768C2.88574 17.12 2.73999 16.9904 2.73999 16.8123V1.42769C2.73999 1.26574 2.86954 1.12 3.04768 1.12H14.9991C15.161 1.12 15.3068 1.24955 15.3068 1.42769V16.8123C15.3068 16.9904 15.161 17.12 14.9991 17.12ZM3.35537 16.5046H14.6914V1.73538H3.35537V16.5046Z" fill="#14375E" stroke="#14375E" stroke-width="0.25"/>
<path d="M12.9262 4.7637H5.1205C4.95855 4.7637 4.81281 4.63415 4.81281 4.45601C4.81281 4.29406 4.94236 4.14832 5.1205 4.14832H12.91C13.0719 4.14832 13.2177 4.27787 13.2177 4.45601C13.2339 4.61795 13.0881 4.7637 12.9262 4.7637Z" fill="#14375E" stroke="#14375E" stroke-width="0.25"/>
<path d="M12.9262 7.0957H5.1205C4.95855 7.0957 4.81281 6.96615 4.81281 6.78801C4.81281 6.60987 4.94236 6.48032 5.1205 6.48032H12.91C13.0719 6.48032 13.2177 6.60987 13.2177 6.78801C13.2177 6.96615 13.0881 7.0957 12.9262 7.0957Z" fill="#14375E" stroke="#14375E" stroke-width="0.25"/>
<path d="M12.9262 9.4277H5.1205C4.95855 9.4277 4.81281 9.29815 4.81281 9.12001C4.81281 8.94187 4.94236 8.81232 5.1205 8.81232H12.91C13.0719 8.81232 13.2177 8.94187 13.2177 9.12001C13.2177 9.29815 13.0881 9.4277 12.9262 9.4277Z" fill="#14375E" stroke="#14375E" stroke-width="0.25"/>
<path d="M12.9262 11.7597H5.1205C4.95855 11.7597 4.81281 11.6301 4.81281 11.452C4.81281 11.29 4.94236 11.1443 5.1205 11.1443H12.91C13.0719 11.1443 13.2177 11.2738 13.2177 11.452C13.2339 11.6139 13.0881 11.7597 12.9262 11.7597Z" fill="#14375E" stroke="#14375E" stroke-width="0.25"/>
<path d="M12.9262 14.0917H5.1205C4.95855 14.0917 4.81281 13.9621 4.81281 13.784C4.81281 13.6058 4.94236 13.4763 5.1205 13.4763H12.91C13.0719 13.4763 13.2177 13.6058 13.2177 13.784C13.2177 13.9621 13.0881 14.0917 12.9262 14.0917Z" fill="#14375E" stroke="#14375E" stroke-width="0.25"/>
</svg>
